#N canvas 286 266 948 696 10;
#X obj 226 107 r onOff;
#X obj 226 494 s sendCounter;
#X obj 226 55 s onOff;
#X obj 226 15 tgl 15 0 empty empty empty 17 7 0 10 -262144 -1 -1 0
1;
#X obj 226 291 float;
#X obj 226 332 mod 10;
#X floatatom 226 378 5 0 0 0 - - -, f 5;
#X obj 316 288 + 1;
#X obj 226 162 metro 1000;
#X obj 373 496 s sendFrequency;
#X obj 488 93 mtof;
#X obj 392 435 dac~;
#X obj 389 284 osc~;
#X connect 0 0 8 0;
#X connect 3 0 2 0;
#X connect 4 0 5 0;
#X connect 4 0 7 0;
#X connect 5 0 6 0;
#X connect 5 0 9 0;
#X connect 6 0 1 0;
#X connect 7 0 4 1;
#X connect 8 0 4 0;
